<svg data-v-423bf9ae="" xmlns="http://www.w3.org/2000/svg" viewBox="0 0 1126 90" class="iconLeft"><!----><!----><!----><g data-v-423bf9ae="" id="69bf4266-59d2-4c79-954d-fa0c5f902f39" fill="#1C300E" transform="matrix(5.734655894085273,0,0,5.734655894085273,103.57717904890046,14.254495118741755)"><path d="M6.12 2.49L6.12 2.49L6.12 0.49L1.12 0.49L1.12 10.50L3.12 10.50L3.12 6.50L5.67 6.50L5.67 4.49L3.12 4.49L3.12 2.49L6.12 2.49ZM6.44 10.50L8.71 10.50L9.10 9.42L12.42 9.42L12.82 10.50L15.08 10.50L10.86 0.13L10.65 0.13L6.44 10.50L6.44 10.50ZM9.83 7.55L10.77 4.94L11.68 7.55L9.83 7.55L9.83 7.55ZM21.07 4.73L17.12 0.34L16.48 0.34L16.48 10.50L18.51 10.50L18.51 4.91L21.07 7.60L23.63 4.91L23.62 10.50L25.65 10.50L25.65 0.34L25.02 0.34L21.07 4.73L21.07 4.73ZM29.90 10.50L29.90 0.49L27.90 0.49L27.90 10.50L29.90 10.50L29.90 10.50ZM32.16 0.49L32.16 0.49L32.16 10.50L37.34 10.50L37.34 8.50L34.16 8.50L34.16 0.49L32.16 0.49ZM40.42 10.50L40.42 10.50L42.41 10.50L42.41 5.99L45.91 0.49L43.46 0.49L41.41 3.93L39.37 0.49L36.93 0.49L40.42 5.99L40.42 10.50ZM54.01 0.49L51.03 0.49L51.03 10.50L54.01 10.50C60.68 10.50 60.68 0.49 54.01 0.49L54.01 0.49ZM54.01 2.49C57.90 2.49 57.90 8.50 54.01 8.50L53.03 8.50L53.03 2.49L54.01 2.49L54.01 2.49ZM68.14 10.50L68.14 10.50L65.81 6.37C68.75 5.52 68.40 0.49 64.83 0.49L60.89 0.49L60.89 10.50L62.89 10.50L62.89 6.68L63.85 6.68L65.87 10.50ZM62.89 2.49L64.65 2.49C66.01 2.49 66.01 4.73 64.65 4.73L62.89 4.73L62.89 4.73ZM68.57 10.50L70.84 10.50L71.23 9.42L74.55 9.42L74.96 10.50L77.21 10.50L73.00 0.13L72.79 0.13L68.57 10.50L68.57 10.50ZM71.96 7.55L72.90 4.94L73.81 7.55L71.96 7.55L71.96 7.55ZM85.51 9.88L85.51 9.88L85.51 5.49L83.48 5.49L83.48 8.50C83.30 8.53 83.10 8.55 82.92 8.55C79.06 8.55 78.88 2.58 82.92 2.44C83.99 2.41 84.63 2.63 85.02 2.80L85.26 0.77C85.08 0.71 84.11 0.36 82.92 0.41C75.98 0.66 76.31 10.56 82.92 10.56C83.87 10.56 84.74 10.32 85.51 9.88ZM91.69 0.49L91.69 0.49L91.69 10.50L96.87 10.50L96.87 8.50L93.69 8.50L93.69 0.49L91.69 0.49ZM100.59 10.50L100.59 0.49L98.59 0.49L98.59 10.50L100.59 10.50L100.59 10.50ZM102.38 9.86C103.74 10.56 104.99 10.63 105.55 10.58C107.42 10.49 108.57 9.21 108.57 7.55C108.57 5.95 107.23 5.05 105.67 4.48C105.10 4.28 104.61 4.03 104.55 3.47C104.51 2.91 104.83 2.39 105.55 2.35C105.85 2.34 106.48 2.32 107.59 2.77L107.84 0.84C106.55 0.39 105.87 0.39 105.35 0.42C103.68 0.50 102.52 1.79 102.52 3.47C102.52 5.15 103.92 5.95 105.49 6.52C106.05 6.72 106.48 6.97 106.53 7.55C106.58 8.09 106.08 8.51 105.49 8.55C105.03 8.60 103.78 8.57 102.63 7.76L102.38 9.86L102.38 9.86ZM113.90 10.50L113.90 2.49L116.40 2.49L116.40 0.50L109.41 0.50L109.41 2.49L111.90 2.49L111.90 10.50L113.90 10.50L113.90 10.50ZM125.54 10.50L125.54 2.49L128.03 2.49L128.03 0.50L121.04 0.50L121.04 2.49L123.54 2.49L123.54 10.50L125.54 10.50L125.54 10.50ZM136.79 10.50L136.79 10.50L134.47 6.37C137.41 5.52 137.06 0.49 133.49 0.49L129.54 0.49L129.54 10.50L131.54 10.50L131.54 6.68L132.51 6.68L134.53 10.50ZM131.54 2.49L133.31 2.49C134.67 2.49 134.67 4.73 133.31 4.73L131.54 4.73L131.54 4.73ZM137.23 10.50L139.50 10.50L139.89 9.42L143.21 9.42L143.61 10.50L145.87 10.50L141.65 0.13L141.44 0.13L137.23 10.50L137.23 10.50ZM140.62 7.55L141.55 4.94L142.46 7.55L140.62 7.55L140.62 7.55ZM153.31 2.81L153.31 2.81L153.55 0.76C152.95 0.49 152.28 0.36 151.58 0.36C144.80 0.36 144.79 10.53 151.58 10.53C152.28 10.53 153.16 10.36 153.78 10.11L153.51 8.04C153.13 8.23 152.45 8.48 151.58 8.48C147.62 8.48 147.62 2.38 151.58 2.38C152.45 2.38 152.94 2.62 153.31 2.81ZM155.37 10.50L157.37 10.50C157.37 9.21 157.37 7.87 157.37 6.58L160.03 10.50L162.51 10.50L158.98 5.43L162.23 0.49L159.89 0.49L157.37 4.48C157.37 3.15 157.37 1.82 157.37 0.49L155.37 0.49L155.37 10.50L155.37 10.50ZM169.01 10.50L169.01 10.50L169.01 8.50L165.83 8.50L165.83 6.50L168.46 6.50L168.46 4.49L165.83 4.49L165.83 2.49L168.84 2.49L168.84 0.49L163.83 0.49L163.83 10.50L169.01 10.50ZM178.14 10.50L178.14 10.50L175.81 6.37C178.75 5.52 178.40 0.49 174.83 0.49L170.88 0.49L170.88 10.50L172.89 10.50L172.89 6.68L173.85 6.68L175.87 10.50ZM172.89 2.49L174.65 2.49C176.01 2.49 176.01 4.73 174.65 4.73L172.89 4.73L172.89 4.73Z"></path></g><defs data-v-423bf9ae=""><linearGradient data-v-423bf9ae="" gradientTransform="rotate(25)" id="34476a8e-2e88-480b-a7b4-8af556d87682" x1="0%" y1="0%" x2="100%" y2="0%"><stop data-v-423bf9ae="" offset="0%" style="stop-color: rgb(33, 105, 15); stop-opacity: 1;"></stop><stop data-v-423bf9ae="" offset="100%" style="stop-color: rgb(136, 200, 72); stop-opacity: 1;"></stop></linearGradient></defs><g data-v-423bf9ae="" id="b0f4679e-e872-4e02-82a5-6ac6f60b28ed" transform="matrix(2.8125,0,0,2.8125,0,0)" stroke="none" fill="url(#34476a8e-2e88-480b-a7b4-8af556d87682)"><path d="M16 32c8.837 0 16-7.163 16-16S24.837 0 16 0 0 7.163 0 16s7.163 16 16 16zM14.817 6.421h2v8.886h8.887v2H14.817V6.421zm-5.959.437h2v14.283h14.283v2H8.858V6.858z"></path></g><!----></svg>